<?xml version="1.0" encoding="utf-8"?>
<!-- Generator: Adobe Illustrator 23.0.0, SVG Export Plug-In . SVG Version: 6.00 Build 0)  -->
<svg version="1.1" id="Capa_1" xmlns="http://www.w3.org/2000/svg" xmlns:xlink="http://www.w3.org/1999/xlink" x="0px" y="0px"
	 viewBox="0 0 400 532" style="enable-background:new 0 0 400 532;" xml:space="preserve">
<style type="text/css">
	.st0{fill:#AFAFAF;}
</style>
<g>
	<ellipse class="st0" cx="199.8" cy="203.1" rx="101.4" ry="118.7"/>
	<path class="st0" d="M372.7,381c-2.4-5.3-6.5-9.6-11.5-12.3l-79.3-41.3c-1.8-1-3.8-0.7-5.4,0.5c-22.4,17-48.7,25.9-76.1,25.9
		c-27.4,0-53.8-9-76.1-25.9c-1.6-1.2-3.7-1.3-5.4-0.5l-79.3,41.3c-5.1,2.6-9.2,7.1-11.5,12.3L1.4,441.2L0,444.4V532
		c0.2,0,0.3,0,0.5,0H400v-89.4L372.7,381z"/>
	<path class="st0" d="M400,442.6"/>
</g>
</svg>
